<svg width="24" height="24" viewBox="0 0 24 24" fill="none" xmlns="http://www.w3.org/2000/svg">
<path fill-rule="evenodd" clip-rule="evenodd" d="M16.8169 7.18306C17.061 7.42714 17.061 7.82286 16.8169 8.06694L8.06694 16.8169C7.82286 17.061 7.42714 17.061 7.18306 16.8169C6.93898 16.5729 6.93898 16.1771 7.18306 15.9331L15.9331 7.18306C16.1771 6.93898 16.5729 6.93898 16.8169 7.18306Z" fill="#FFFFFF"/>
<path fill-rule="evenodd" clip-rule="evenodd" d="M7.18306 7.18306C7.42714 6.93898 7.82286 6.93898 8.06694 7.18306L16.8169 15.9331C17.061 16.1771 17.061 16.5729 16.8169 16.8169C16.5729 17.061 16.1771 17.061 15.9331 16.8169L7.18306 8.06694C6.93898 7.82286 6.93898 7.42714 7.18306 7.18306Z" fill="#FFFFFF"/>
</svg>
